<mxfile host="app.diagrams.net" modified="2024-04-30T13:08:21.766Z" agent="Mozilla/5.0 (Windows NT 10.0; Win64; x64) AppleWebKit/537.36 (KHTML, like Gecko) Chrome/124.0.0.0 Safari/537.36" etag="xHAmg3mRJVCiGeehRoB2" version="24.3.1" type="google">
  <diagram name="Page-1" id="TzD-xTVHUrAz3XAGLA_H">
    <mxGraphModel grid="1" page="1" gridSize="10" guides="0" tooltips="1" connect="1" arrows="1" fold="1" pageScale="1" pageWidth="827" pageHeight="1169" background="#ffffff" math="0" shadow="0">
      <root>
        <mxCell id="0" />
        <mxCell id="1" parent="0" />
        <mxCell id="se88RA9qScvLyj2LVP5e-1" value="" style="ellipse;whiteSpace=wrap;html=1;aspect=fixed;strokeWidth=2;" vertex="1" parent="1">
          <mxGeometry x="20" y="200" width="80" height="80" as="geometry" />
        </mxCell>
        <mxCell id="se88RA9qScvLyj2LVP5e-3" value="" style="ellipse;whiteSpace=wrap;html=1;aspect=fixed;strokeWidth=2;" vertex="1" parent="1">
          <mxGeometry x="720" y="195" width="90" height="90" as="geometry" />
        </mxCell>
        <mxCell id="se88RA9qScvLyj2LVP5e-4" value="" style="ellipse;whiteSpace=wrap;html=1;aspect=fixed;strokeWidth=2;" vertex="1" parent="1">
          <mxGeometry x="725" y="1055" width="80" height="80" as="geometry" />
        </mxCell>
        <mxCell id="se88RA9qScvLyj2LVP5e-5" value="User" style="text;strokeColor=none;align=center;fillColor=none;html=1;verticalAlign=middle;whiteSpace=wrap;rounded=0;fontSize=16;strokeWidth=2;" vertex="1" parent="1">
          <mxGeometry x="30" y="230" width="60" height="20" as="geometry" />
        </mxCell>
        <mxCell id="se88RA9qScvLyj2LVP5e-6" value="System" style="text;strokeColor=none;align=center;fillColor=none;html=1;verticalAlign=middle;whiteSpace=wrap;rounded=0;fontSize=16;strokeWidth=2;" vertex="1" parent="1">
          <mxGeometry x="735" y="1080" width="60" height="30" as="geometry" />
        </mxCell>
        <mxCell id="se88RA9qScvLyj2LVP5e-7" value="Librarian" style="text;strokeColor=none;align=center;fillColor=none;html=1;verticalAlign=middle;whiteSpace=wrap;rounded=0;fontSize=16;strokeWidth=2;" vertex="1" parent="1">
          <mxGeometry x="735" y="225" width="60" height="30" as="geometry" />
        </mxCell>
        <mxCell id="1NPjpik0_ux5bKZSYNR--4" value="Cancel MemberShip" style="ellipse;whiteSpace=wrap;html=1;fontSize=16;strokeWidth=2;" vertex="1" parent="1">
          <mxGeometry x="354" y="30" width="120" height="80" as="geometry" />
        </mxCell>
        <mxCell id="1NPjpik0_ux5bKZSYNR--5" value="Register/Update" style="ellipse;whiteSpace=wrap;html=1;fontSize=16;strokeWidth=2;" vertex="1" parent="1">
          <mxGeometry x="354" y="145" width="120" height="80" as="geometry" />
        </mxCell>
        <mxCell id="1NPjpik0_ux5bKZSYNR--6" value="Account&amp;nbsp;&lt;div style=&quot;font-size: 16px;&quot;&gt;Login/Logout&lt;/div&gt;" style="ellipse;whiteSpace=wrap;html=1;fontSize=16;strokeWidth=2;" vertex="1" parent="1">
          <mxGeometry x="354" y="270" width="120" height="80" as="geometry" />
        </mxCell>
        <mxCell id="1NPjpik0_ux5bKZSYNR--7" value="Renew Book" style="ellipse;whiteSpace=wrap;html=1;fontSize=16;strokeWidth=2;" vertex="1" parent="1">
          <mxGeometry x="354" y="590" width="120" height="80" as="geometry" />
        </mxCell>
        <mxCell id="1NPjpik0_ux5bKZSYNR--8" value="Issue book" style="ellipse;whiteSpace=wrap;html=1;fontSize=16;strokeWidth=2;" vertex="1" parent="1">
          <mxGeometry x="354" y="715" width="120" height="80" as="geometry" />
        </mxCell>
        <mxCell id="1NPjpik0_ux5bKZSYNR--9" value="Checkout Book" style="ellipse;whiteSpace=wrap;html=1;fontSize=16;strokeWidth=2;" vertex="1" parent="1">
          <mxGeometry x="354" y="465" width="120" height="80" as="geometry" />
        </mxCell>
        <mxCell id="1NPjpik0_ux5bKZSYNR--10" value="Return Book" style="ellipse;whiteSpace=wrap;html=1;fontSize=16;strokeWidth=2;" vertex="1" parent="1">
          <mxGeometry x="354" y="930" width="120" height="80" as="geometry" />
        </mxCell>
        <mxCell id="1NPjpik0_ux5bKZSYNR--11" value="Search Catalogue" style="ellipse;whiteSpace=wrap;html=1;fontSize=16;strokeWidth=2;" vertex="1" parent="1">
          <mxGeometry x="50" y="-150" width="120" height="80" as="geometry" />
        </mxCell>
        <mxCell id="1NPjpik0_ux5bKZSYNR--12" value="Reserve Book" style="ellipse;whiteSpace=wrap;html=1;fontSize=16;strokeWidth=2;" vertex="1" parent="1">
          <mxGeometry x="354" y="830" width="120" height="80" as="geometry" />
        </mxCell>
        <mxCell id="1NPjpik0_ux5bKZSYNR--20" value="" style="endArrow=classic;html=1;rounded=0;exitX=1.221;exitY=0.657;exitDx=0;exitDy=0;exitPerimeter=0;entryX=0;entryY=0.5;entryDx=0;entryDy=0;strokeWidth=2;" edge="1" parent="1" source="se88RA9qScvLyj2LVP5e-5" target="1NPjpik0_ux5bKZSYNR--5">
          <mxGeometry width="50" height="50" relative="1" as="geometry">
            <mxPoint x="380" y="420" as="sourcePoint" />
            <mxPoint x="430" y="370" as="targetPoint" />
          </mxGeometry>
        </mxCell>
        <mxCell id="1NPjpik0_ux5bKZSYNR--21" value="" style="endArrow=classic;html=1;rounded=0;exitX=1.174;exitY=1.229;exitDx=0;exitDy=0;exitPerimeter=0;entryX=0;entryY=0.5;entryDx=0;entryDy=0;strokeWidth=2;" edge="1" parent="1" source="se88RA9qScvLyj2LVP5e-5" target="1NPjpik0_ux5bKZSYNR--6">
          <mxGeometry width="50" height="50" relative="1" as="geometry">
            <mxPoint x="390" y="430" as="sourcePoint" />
            <mxPoint x="440" y="380" as="targetPoint" />
          </mxGeometry>
        </mxCell>
        <mxCell id="1NPjpik0_ux5bKZSYNR--22" value="" style="endArrow=classic;html=1;rounded=0;exitX=0.5;exitY=0;exitDx=0;exitDy=0;entryX=0.254;entryY=1.061;entryDx=0;entryDy=0;entryPerimeter=0;strokeWidth=2;" edge="1" parent="1" source="se88RA9qScvLyj2LVP5e-1" target="1NPjpik0_ux5bKZSYNR--11">
          <mxGeometry width="50" height="50" relative="1" as="geometry">
            <mxPoint x="400" y="440" as="sourcePoint" />
            <mxPoint x="450" y="390" as="targetPoint" />
          </mxGeometry>
        </mxCell>
        <mxCell id="1NPjpik0_ux5bKZSYNR--23" value="" style="endArrow=classic;html=1;rounded=0;exitX=1;exitY=0;exitDx=0;exitDy=0;entryX=-0.018;entryY=0.65;entryDx=0;entryDy=0;entryPerimeter=0;strokeWidth=2;" edge="1" parent="1" source="se88RA9qScvLyj2LVP5e-1" target="1NPjpik0_ux5bKZSYNR--4">
          <mxGeometry width="50" height="50" relative="1" as="geometry">
            <mxPoint x="410" y="450" as="sourcePoint" />
            <mxPoint x="460" y="400" as="targetPoint" />
          </mxGeometry>
        </mxCell>
        <mxCell id="1NPjpik0_ux5bKZSYNR--24" value="" style="endArrow=classic;html=1;rounded=0;exitX=0;exitY=0.5;exitDx=0;exitDy=0;entryX=1;entryY=0.5;entryDx=0;entryDy=0;strokeWidth=2;" edge="1" parent="1" source="se88RA9qScvLyj2LVP5e-3" target="1NPjpik0_ux5bKZSYNR--6">
          <mxGeometry width="50" height="50" relative="1" as="geometry">
            <mxPoint x="420" y="460" as="sourcePoint" />
            <mxPoint x="470" y="410" as="targetPoint" />
          </mxGeometry>
        </mxCell>
        <mxCell id="1NPjpik0_ux5bKZSYNR--25" value="" style="endArrow=classic;html=1;rounded=0;exitX=0;exitY=0;exitDx=0;exitDy=0;entryX=1;entryY=0.5;entryDx=0;entryDy=0;strokeWidth=2;" edge="1" parent="1" source="se88RA9qScvLyj2LVP5e-3" target="1NPjpik0_ux5bKZSYNR--5">
          <mxGeometry width="50" height="50" relative="1" as="geometry">
            <mxPoint x="430" y="470" as="sourcePoint" />
            <mxPoint x="480" y="420" as="targetPoint" />
          </mxGeometry>
        </mxCell>
        <mxCell id="1NPjpik0_ux5bKZSYNR--26" value="" style="endArrow=classic;html=1;rounded=0;exitX=0.354;exitY=0.046;exitDx=0;exitDy=0;exitPerimeter=0;entryX=1;entryY=0.5;entryDx=0;entryDy=0;strokeWidth=2;" edge="1" parent="1" source="se88RA9qScvLyj2LVP5e-3" target="1NPjpik0_ux5bKZSYNR--4">
          <mxGeometry width="50" height="50" relative="1" as="geometry">
            <mxPoint x="440" y="480" as="sourcePoint" />
            <mxPoint x="490" y="430" as="targetPoint" />
          </mxGeometry>
        </mxCell>
        <mxCell id="1NPjpik0_ux5bKZSYNR--27" value="" style="endArrow=classic;html=1;rounded=0;exitX=0.97;exitY=0.832;exitDx=0;exitDy=0;exitPerimeter=0;entryX=-0.042;entryY=0.334;entryDx=0;entryDy=0;entryPerimeter=0;strokeWidth=2;" edge="1" parent="1" source="se88RA9qScvLyj2LVP5e-1" target="1NPjpik0_ux5bKZSYNR--9">
          <mxGeometry width="50" height="50" relative="1" as="geometry">
            <mxPoint x="450" y="490" as="sourcePoint" />
            <mxPoint x="500" y="440" as="targetPoint" />
          </mxGeometry>
        </mxCell>
        <mxCell id="1NPjpik0_ux5bKZSYNR--28" value="" style="endArrow=classic;html=1;rounded=0;exitX=0.734;exitY=0.989;exitDx=0;exitDy=0;exitPerimeter=0;entryX=0;entryY=0.5;entryDx=0;entryDy=0;strokeWidth=2;" edge="1" parent="1" source="se88RA9qScvLyj2LVP5e-1" target="1NPjpik0_ux5bKZSYNR--7">
          <mxGeometry width="50" height="50" relative="1" as="geometry">
            <mxPoint x="460" y="500" as="sourcePoint" />
            <mxPoint x="510" y="450" as="targetPoint" />
          </mxGeometry>
        </mxCell>
        <mxCell id="1NPjpik0_ux5bKZSYNR--29" value="" style="endArrow=classic;html=1;rounded=0;exitX=0.5;exitY=1;exitDx=0;exitDy=0;entryX=0;entryY=0.5;entryDx=0;entryDy=0;strokeWidth=2;" edge="1" parent="1" source="se88RA9qScvLyj2LVP5e-1" target="1NPjpik0_ux5bKZSYNR--8">
          <mxGeometry width="50" height="50" relative="1" as="geometry">
            <mxPoint x="470" y="510" as="sourcePoint" />
            <mxPoint x="520" y="460" as="targetPoint" />
          </mxGeometry>
        </mxCell>
        <mxCell id="1NPjpik0_ux5bKZSYNR--30" value="" style="endArrow=classic;html=1;rounded=0;exitX=0.277;exitY=0.954;exitDx=0;exitDy=0;exitPerimeter=0;entryX=0;entryY=0.5;entryDx=0;entryDy=0;strokeWidth=2;" edge="1" parent="1" source="se88RA9qScvLyj2LVP5e-1" target="1NPjpik0_ux5bKZSYNR--12">
          <mxGeometry width="50" height="50" relative="1" as="geometry">
            <mxPoint x="480" y="520" as="sourcePoint" />
            <mxPoint x="210" y="710" as="targetPoint" />
          </mxGeometry>
        </mxCell>
        <mxCell id="1NPjpik0_ux5bKZSYNR--31" value="" style="endArrow=classic;html=1;rounded=0;exitX=0;exitY=1;exitDx=0;exitDy=0;entryX=0;entryY=0.5;entryDx=0;entryDy=0;strokeWidth=2;" edge="1" parent="1" source="se88RA9qScvLyj2LVP5e-1" target="1NPjpik0_ux5bKZSYNR--10">
          <mxGeometry width="50" height="50" relative="1" as="geometry">
            <mxPoint x="490" y="530" as="sourcePoint" />
            <mxPoint x="540" y="480" as="targetPoint" />
          </mxGeometry>
        </mxCell>
        <mxCell id="1NPjpik0_ux5bKZSYNR--33" value="" style="endArrow=classic;html=1;rounded=0;exitX=-0.001;exitY=0.728;exitDx=0;exitDy=0;exitPerimeter=0;entryX=0.989;entryY=0.281;entryDx=0;entryDy=0;entryPerimeter=0;strokeWidth=2;" edge="1" parent="1" source="se88RA9qScvLyj2LVP5e-3" target="1NPjpik0_ux5bKZSYNR--9">
          <mxGeometry width="50" height="50" relative="1" as="geometry">
            <mxPoint x="490" y="660" as="sourcePoint" />
            <mxPoint x="540" y="610" as="targetPoint" />
          </mxGeometry>
        </mxCell>
        <mxCell id="1NPjpik0_ux5bKZSYNR--34" value="" style="endArrow=classic;html=1;rounded=0;exitX=-0.001;exitY=0.728;exitDx=0;exitDy=0;exitPerimeter=0;entryX=1;entryY=0.5;entryDx=0;entryDy=0;strokeWidth=2;" edge="1" parent="1" target="1NPjpik0_ux5bKZSYNR--7">
          <mxGeometry width="50" height="50" relative="1" as="geometry">
            <mxPoint x="730" y="271" as="sourcePoint" />
            <mxPoint x="483" y="497" as="targetPoint" />
          </mxGeometry>
        </mxCell>
        <mxCell id="1NPjpik0_ux5bKZSYNR--35" value="" style="endArrow=classic;html=1;rounded=0;exitX=-0.001;exitY=0.728;exitDx=0;exitDy=0;exitPerimeter=0;entryX=1;entryY=0.5;entryDx=0;entryDy=0;strokeWidth=2;" edge="1" parent="1" target="1NPjpik0_ux5bKZSYNR--8">
          <mxGeometry width="50" height="50" relative="1" as="geometry">
            <mxPoint x="740" y="281" as="sourcePoint" />
            <mxPoint x="484" y="640" as="targetPoint" />
          </mxGeometry>
        </mxCell>
        <mxCell id="1NPjpik0_ux5bKZSYNR--36" value="" style="endArrow=classic;html=1;rounded=0;entryX=1;entryY=0.5;entryDx=0;entryDy=0;strokeWidth=2;" edge="1" parent="1" target="1NPjpik0_ux5bKZSYNR--12">
          <mxGeometry width="50" height="50" relative="1" as="geometry">
            <mxPoint x="750" y="290" as="sourcePoint" />
            <mxPoint x="484" y="765" as="targetPoint" />
          </mxGeometry>
        </mxCell>
        <mxCell id="1NPjpik0_ux5bKZSYNR--37" value="" style="endArrow=classic;html=1;rounded=0;entryX=1;entryY=0.5;entryDx=0;entryDy=0;strokeWidth=2;" edge="1" parent="1" target="1NPjpik0_ux5bKZSYNR--10">
          <mxGeometry width="50" height="50" relative="1" as="geometry">
            <mxPoint x="770" y="290" as="sourcePoint" />
            <mxPoint x="484" y="880" as="targetPoint" />
          </mxGeometry>
        </mxCell>
        <mxCell id="1NPjpik0_ux5bKZSYNR--39" value="Send Overdue Notification" style="ellipse;whiteSpace=wrap;html=1;fontSize=16;strokeWidth=2;" vertex="1" parent="1">
          <mxGeometry x="490" y="1055" width="120" height="80" as="geometry" />
        </mxCell>
        <mxCell id="1NPjpik0_ux5bKZSYNR--40" value="Send Reservation Cancel Notification" style="ellipse;whiteSpace=wrap;html=1;fontSize=16;strokeWidth=2;" vertex="1" parent="1">
          <mxGeometry x="690" y="1250" width="120" height="80" as="geometry" />
        </mxCell>
        <mxCell id="1NPjpik0_ux5bKZSYNR--41" value="Send Reservation (Available) Notification" style="ellipse;whiteSpace=wrap;html=1;fontSize=16;strokeWidth=2;" vertex="1" parent="1">
          <mxGeometry x="520" y="1210" width="120" height="80" as="geometry" />
        </mxCell>
        <mxCell id="1NPjpik0_ux5bKZSYNR--43" value="" style="endArrow=classic;html=1;rounded=0;exitX=-0.25;exitY=0.333;exitDx=0;exitDy=0;exitPerimeter=0;strokeWidth=2;" edge="1" parent="1" source="se88RA9qScvLyj2LVP5e-6">
          <mxGeometry width="50" height="50" relative="1" as="geometry">
            <mxPoint x="230" y="1150" as="sourcePoint" />
            <mxPoint x="610" y="1095" as="targetPoint" />
          </mxGeometry>
        </mxCell>
        <mxCell id="1NPjpik0_ux5bKZSYNR--44" value="" style="endArrow=classic;html=1;rounded=0;exitX=0;exitY=1;exitDx=0;exitDy=0;entryX=1;entryY=0;entryDx=0;entryDy=0;strokeWidth=2;" edge="1" parent="1" source="se88RA9qScvLyj2LVP5e-4" target="1NPjpik0_ux5bKZSYNR--41">
          <mxGeometry width="50" height="50" relative="1" as="geometry">
            <mxPoint x="730" y="1100" as="sourcePoint" />
            <mxPoint x="620" y="1105" as="targetPoint" />
          </mxGeometry>
        </mxCell>
        <mxCell id="1NPjpik0_ux5bKZSYNR--45" value="" style="endArrow=classic;html=1;rounded=0;exitX=0.5;exitY=1;exitDx=0;exitDy=0;entryX=0.553;entryY=-0.022;entryDx=0;entryDy=0;entryPerimeter=0;strokeWidth=2;" edge="1" parent="1" source="se88RA9qScvLyj2LVP5e-4" target="1NPjpik0_ux5bKZSYNR--40">
          <mxGeometry width="50" height="50" relative="1" as="geometry">
            <mxPoint x="740" y="1110" as="sourcePoint" />
            <mxPoint x="632" y="1232" as="targetPoint" />
          </mxGeometry>
        </mxCell>
        <mxCell id="1NPjpik0_ux5bKZSYNR--46" value="Edit Book" style="ellipse;whiteSpace=wrap;html=1;fontSize=16;strokeWidth=2;" vertex="1" parent="1">
          <mxGeometry x="705" y="-290" width="120" height="80" as="geometry" />
        </mxCell>
        <mxCell id="1NPjpik0_ux5bKZSYNR--47" value="Remove Book" style="ellipse;whiteSpace=wrap;html=1;fontSize=16;strokeWidth=2;" vertex="1" parent="1">
          <mxGeometry x="520" y="-270" width="120" height="80" as="geometry" />
        </mxCell>
        <mxCell id="1NPjpik0_ux5bKZSYNR--48" value="Add Book" style="ellipse;whiteSpace=wrap;html=1;fontSize=16;strokeWidth=2;" vertex="1" parent="1">
          <mxGeometry x="400" y="-160" width="120" height="80" as="geometry" />
        </mxCell>
        <mxCell id="1NPjpik0_ux5bKZSYNR--49" value="" style="endArrow=classic;html=1;rounded=0;entryX=0.5;entryY=1;entryDx=0;entryDy=0;strokeWidth=2;" edge="1" parent="1" target="1NPjpik0_ux5bKZSYNR--46">
          <mxGeometry width="50" height="50" relative="1" as="geometry">
            <mxPoint x="765" y="190" as="sourcePoint" />
            <mxPoint x="484" y="80" as="targetPoint" />
          </mxGeometry>
        </mxCell>
        <mxCell id="1NPjpik0_ux5bKZSYNR--50" value="" style="endArrow=classic;html=1;rounded=0;entryX=0.675;entryY=1;entryDx=0;entryDy=0;entryPerimeter=0;exitX=0.372;exitY=-0.039;exitDx=0;exitDy=0;exitPerimeter=0;strokeWidth=2;" edge="1" parent="1" source="se88RA9qScvLyj2LVP5e-3" target="1NPjpik0_ux5bKZSYNR--47">
          <mxGeometry width="50" height="50" relative="1" as="geometry">
            <mxPoint x="775" y="200" as="sourcePoint" />
            <mxPoint x="775" y="-200" as="targetPoint" />
          </mxGeometry>
        </mxCell>
        <mxCell id="1NPjpik0_ux5bKZSYNR--51" value="" style="endArrow=classic;html=1;rounded=0;entryX=0.925;entryY=0.756;entryDx=0;entryDy=0;entryPerimeter=0;strokeWidth=2;" edge="1" parent="1" target="1NPjpik0_ux5bKZSYNR--48">
          <mxGeometry width="50" height="50" relative="1" as="geometry">
            <mxPoint x="750" y="200" as="sourcePoint" />
            <mxPoint x="611" y="-180" as="targetPoint" />
          </mxGeometry>
        </mxCell>
        <mxCell id="1NPjpik0_ux5bKZSYNR--52" value="Update Catalogue" style="ellipse;whiteSpace=wrap;html=1;fontSize=16;strokeWidth=2;" vertex="1" parent="1">
          <mxGeometry x="450" y="-490" width="120" height="80" as="geometry" />
        </mxCell>
        <mxCell id="1NPjpik0_ux5bKZSYNR--53" value="" style="endArrow=classic;html=1;rounded=0;entryX=0;entryY=1;entryDx=0;entryDy=0;exitX=0.5;exitY=0;exitDx=0;exitDy=0;strokeWidth=2;" edge="1" parent="1" source="1NPjpik0_ux5bKZSYNR--48" target="1NPjpik0_ux5bKZSYNR--52">
          <mxGeometry width="50" height="50" relative="1" as="geometry">
            <mxPoint x="330" y="-280" as="sourcePoint" />
            <mxPoint x="380" y="-330" as="targetPoint" />
          </mxGeometry>
        </mxCell>
        <mxCell id="1NPjpik0_ux5bKZSYNR--54" value="" style="endArrow=classic;html=1;rounded=0;entryX=0.5;entryY=1;entryDx=0;entryDy=0;exitX=0.248;exitY=-0.03;exitDx=0;exitDy=0;exitPerimeter=0;strokeWidth=2;" edge="1" parent="1" source="1NPjpik0_ux5bKZSYNR--47" target="1NPjpik0_ux5bKZSYNR--52">
          <mxGeometry width="50" height="50" relative="1" as="geometry">
            <mxPoint x="340" y="-270" as="sourcePoint" />
            <mxPoint x="478" y="-412" as="targetPoint" />
          </mxGeometry>
        </mxCell>
        <mxCell id="1NPjpik0_ux5bKZSYNR--55" value="" style="endArrow=classic;html=1;rounded=0;entryX=0.975;entryY=0.643;entryDx=0;entryDy=0;exitX=0.158;exitY=-0.011;exitDx=0;exitDy=0;exitPerimeter=0;entryPerimeter=0;strokeWidth=2;" edge="1" parent="1" source="1NPjpik0_ux5bKZSYNR--46" target="1NPjpik0_ux5bKZSYNR--52">
          <mxGeometry width="50" height="50" relative="1" as="geometry">
            <mxPoint x="560" y="-262" as="sourcePoint" />
            <mxPoint x="520" y="-400" as="targetPoint" />
          </mxGeometry>
        </mxCell>
      </root>
    </mxGraphModel>
  </diagram>
</mxfile>
